<svg width="100" height="100" viewBox="0 0 100 100" fill="none" xmlns="http://www.w3.org/2000/svg">
<g id="Frame 5134">
<rect width="100" height="100" rx="50" fill="#C5FF96"/>
<path id="Vector" d="M72.7458 34.0469C72.7458 33.9797 72.6793 33.9797 72.6793 33.9125C70.8836 30.2172 67.2257 28 63.1686 28H36.8314C32.7743 28 29.1164 30.2844 27.3207 33.9125C27.3207 33.9797 27.2542 33.9797 27.2542 34.0469L22.266 45.5359C22.133 45.8719 22 46.275 22 46.6781V60.25C22 66.1625 26.7886 71 32.6413 71H67.3587C73.2114 71 78 66.1625 78 60.25V46.6781C78 46.275 77.9335 45.8719 77.734 45.5359L72.7458 34.0469ZM32.1093 36.3313C33.0404 34.5172 34.8361 33.4422 36.8314 33.4422H63.1686C65.1639 33.4422 66.9596 34.5844 67.8907 36.3313L71.2162 43.9906H60.8409C59.5772 43.9906 58.5131 44.8641 58.247 46.1406C58.1805 46.4094 56.7838 53.1281 50 53.1281C43.4157 53.1281 41.886 46.8797 41.753 46.1406C41.4869 44.8641 40.4228 43.9906 39.1591 43.9906H28.7173L32.1093 36.3313Z" fill="#0C1504"/>
</g>
</svg>
