<svg width="100" height="100" viewBox="0 0 100 100" fill="none" xmlns="http://www.w3.org/2000/svg">
<g id="Frame 5135">
<rect width="100" height="100" rx="50" fill="#C5FF96"/>
<path id="Vector" fill-rule="evenodd" clip-rule="evenodd" d="M36.8246 52.0849C38.6353 51.2643 41.7309 49.0958 43.5415 47.865C46.5203 45.9308 57.5008 38.7219 60.1292 37.198C66.9044 33.3884 48.3309 48.9785 44.0087 53.3743C42.9574 54.4879 41.9061 55.1912 41.2052 55.9531C40.5043 56.8322 40.2707 61.7555 40.1539 63.0449L36.8246 52.0849ZM70 32.2748C69.7664 33.6814 67.4301 44.1139 66.9628 46.5169C65.9699 51.2643 64.977 55.8945 63.984 60.6419C62.5823 67.5578 62.7575 72.4224 57.5592 68.73C55.1061 66.9717 49.7327 62.8104 47.63 61.521C45.2937 63.5724 39.9202 70.6055 38.4016 66.034C37.5839 63.6896 35.014 54.7809 34.0795 53.3157L24.6759 50.3266C18.3095 48.3925 24.968 46.0481 27.5379 45.1103L67.138 30.2821C69.1239 29.5201 70 30.3407 70 32.2748Z" fill="#0C1504"/>
</g>
</svg>
