<svg width="150" height="37" viewBox="0 0 150 37" fill="none" xmlns="http://www.w3.org/2000/svg">
<g clip-path="url(#clip0_27_198)">
<path d="M8.52916 28.8065C6.10575 28.8065 4.12295 28.207 2.51783 26.9765C0.944188 25.7776 0.0944188 24.2316 0 22.37H5.41334C5.50776 23.1904 5.85396 23.7898 6.48342 24.2C7.08141 24.6102 7.83676 24.831 8.718 24.831C10.3546 24.831 11.1729 24.3262 11.1729 23.3166C11.1729 22.8117 10.9841 22.4331 10.6379 22.1492C10.2916 21.8652 9.66219 21.6443 8.81242 21.4235L5.25598 20.5085C3.65086 20.0668 2.45489 19.3411 1.63659 18.3314C0.849769 17.3218 0.440621 16.0913 0.440621 14.6399C0.440621 12.9992 1.13303 11.6425 2.48636 10.6013C3.87117 9.5601 5.6966 9.02373 8.0256 9.02373C10.1343 9.02373 11.8968 9.5601 13.3131 10.6329C14.7293 11.7056 15.5162 13.157 15.642 15.0185H10.4175C10.1972 13.7249 9.34746 13.0939 7.93118 13.0939C7.23877 13.0939 6.70373 13.2201 6.29459 13.4725C5.88544 13.7249 5.6966 14.072 5.6966 14.5452C5.6966 15.3656 6.42048 15.9651 7.83676 16.2806L11.1729 17.1956C12.9983 17.6373 14.3517 18.363 15.17 19.3411C15.9882 20.3192 16.4289 21.5497 16.4289 23.0641C16.4289 24.7995 15.705 26.1877 14.2258 27.2605C12.7465 28.3017 10.8582 28.8381 8.52916 28.8381V28.8065Z" fill="#0C1504"/>
<path d="M24.9266 36.3158H19.293L23.2586 27.3552L15.3274 9.49701H20.9925L26.0597 21.7705L31.0953 9.49701H36.7919L24.9266 36.3473V36.3158Z" fill="#0C1504"/>
<path d="M38.5544 28.3964V9.46545H43.716V11.611C44.8805 9.90717 46.6745 9.02373 49.1293 9.02373C51.3954 9.02373 53.1894 9.78096 54.4797 11.2639C55.7701 12.7468 56.4311 14.7661 56.4311 17.2587V28.3648H51.2695V18.1421C51.2695 16.7538 50.9863 15.6811 50.3883 14.8923C49.8218 14.1351 49.0035 13.7249 47.9334 13.7249C46.6745 13.7249 45.6673 14.1666 44.8805 15.0816C44.1252 15.9966 43.716 17.3218 43.716 19.0887V28.3333H38.5544V28.3964Z" fill="#0C1504"/>
<path d="M103.861 28.3964V0H109.022V28.3964H103.861Z" fill="#0C1504"/>
<path d="M118.055 28.8065C115.82 28.8065 114.058 28.0493 112.831 26.5348C111.572 25.0203 110.974 23.0011 110.974 20.4454V9.46545H116.135V19.5619C116.135 22.5593 117.205 24.0738 119.345 24.0738C120.541 24.0738 121.517 23.6321 122.209 22.7171C122.902 21.8021 123.248 20.4769 123.248 18.71V9.46545H128.41V28.3964H123.248V26.2509C122.084 27.9546 120.353 28.8381 118.087 28.8381L118.055 28.8065Z" fill="#0C1504"/>
<path d="M141.125 28.8065C139.929 28.8065 138.827 28.5541 137.851 28.0493C136.876 27.5445 136.152 26.945 135.648 26.2824V28.3964H130.487V0H135.648V11.5794C136.12 10.8853 136.844 10.3173 137.851 9.81252C138.827 9.30769 139.929 9.05528 141.125 9.05528C143.611 9.05528 145.72 10.0334 147.419 11.958C149.119 13.9142 150 16.2175 150 18.9309C150 21.6443 149.15 23.9476 147.419 25.9038C145.72 27.86 143.611 28.8065 141.125 28.8065ZM136.53 22.654C137.411 23.6005 138.544 24.1054 139.992 24.1054C141.439 24.1054 142.572 23.6321 143.454 22.654C144.335 21.7074 144.744 20.4454 144.744 18.9309C144.744 17.4164 144.303 16.1859 143.454 15.2078C142.572 14.2613 141.439 13.7565 139.992 13.7565C138.544 13.7565 137.411 14.2297 136.53 15.2078C135.648 16.1544 135.239 17.4164 135.239 18.9309C135.239 20.4454 135.68 21.6759 136.53 22.654Z" fill="#0C1504"/>
<mask id="mask0_27_198" style="mask-type:alpha" maskUnits="userSpaceOnUse" x="56" y="3" width="29" height="29">
<path d="M56.6514 31.5515V6.3103V3.15515H84.977V6.3103V12.6206L81.8297 14.1982V25.2412L78.6824 28.3964L56.6514 31.5515Z" fill="#D9D9D9"/>
</mask>
<g mask="url(#mask0_27_198)">
<path d="M101.689 25.0784C102.287 22.081 101.689 19.0205 99.958 16.4648C98.227 13.846 95.5518 12.1107 92.5304 11.5112C86.7394 10.4069 83.5606 13.2781 78.7138 17.6322L78.462 17.8846L77.6122 18.6103C73.0172 22.7436 71.5694 23.911 68.7054 23.3746C67.1947 23.0591 65.8728 22.2072 64.9916 20.882C64.1418 19.62 63.8271 18.1055 64.1103 16.6541C64.4251 15.1712 65.3063 13.8776 66.6282 13.0257C67.0058 12.8048 67.3835 12.6155 67.7612 12.4578C68.8628 12.0476 69.7755 12.1107 70.342 12.1423C71.5694 12.2369 72.4821 12.584 72.671 12.6786C74.8426 13.5936 75.8497 15.5498 76.1645 16.1808C77.5808 15.0134 79.0285 13.846 80.4448 12.6786C79.658 11.4797 78.1473 9.55503 75.6609 8.07211C74.4649 7.37797 73.3319 6.93625 72.3877 6.68384V6.62074C72.1045 6.55763 71.7897 6.55763 71.475 6.49453C71.2862 6.49453 71.1288 6.39988 70.9714 6.36832C68.3592 6.11591 65.7469 6.68384 63.5124 8.13521C60.9001 9.80744 59.0432 12.4893 58.4452 15.4867C57.8472 18.4841 58.4452 21.5446 60.1762 24.1003C61.4666 26.0565 63.2606 27.5078 65.3693 28.3913C66.0931 28.6752 66.817 28.8961 67.6038 29.0539C73.3949 30.1582 76.6051 27.287 81.4519 22.9013L81.7037 22.6805L82.5535 21.9232C87.1485 17.79 88.5963 16.6226 91.4288 17.1589C92.9395 17.4429 94.2614 18.3263 95.1426 19.6515C95.9924 20.9136 96.3071 22.428 96.0239 23.8794C95.7406 25.3623 94.8279 26.6559 93.5061 27.5078C92.2786 28.2966 90.8623 28.549 89.4775 28.3282C88.2816 28.1389 87.4318 27.634 86.9597 27.3185C85.2916 26.2773 84.3789 24.826 83.9068 23.9741C82.522 25.2046 81.1372 26.4035 79.7524 27.634C80.5077 29.0539 82.3646 32.0197 85.8896 33.3133C86.5191 33.5657 87.1485 33.6919 87.7465 33.8181V33.9128C87.9983 33.9759 88.2501 33.9759 88.5019 34.0074C88.6278 34.0074 88.7222 34.0706 88.8166 34.1021C91.5233 34.4492 94.2614 33.8812 96.6219 32.3983C99.2341 30.7261 101.091 28.0442 101.689 25.0468V25.0784Z" fill="#0C1504"/>
</g>
<mask id="mask1_27_198" style="mask-type:alpha" maskUnits="userSpaceOnUse" x="78" y="6" width="30" height="29">
<path d="M107.008 6.31031V31.5515V34.7067H78.6824V31.5515V25.2412L81.8297 23.6636V12.6206L84.977 9.46546L107.008 6.31031Z" fill="#D9D9D9"/>
</mask>
<g mask="url(#mask1_27_198)">
<path d="M101.689 25.0784C102.287 22.081 101.689 19.0205 99.958 16.4648C98.227 13.846 95.5518 12.1107 92.5304 11.5112C86.7394 10.4069 83.5606 13.2781 78.7138 17.6322L78.462 17.8846L77.6122 18.6103C73.0172 22.7436 71.5694 23.911 68.7054 23.3746C67.1947 23.0591 65.8728 22.2072 64.9916 20.882C64.1418 19.62 63.8271 18.1055 64.1103 16.6541C64.4251 15.1712 65.3063 13.8776 66.6282 13.0257C67.0058 12.8048 67.3835 12.6155 67.7612 12.4578C68.8628 12.0476 69.7755 12.1107 70.342 12.1423C71.5694 12.2369 72.4821 12.584 72.671 12.6786C74.8426 13.5936 75.8497 15.5498 76.1645 16.1808C77.5808 15.0134 79.0285 13.846 80.4448 12.6786C79.658 11.4797 78.1473 9.55503 75.6609 8.07211C74.4649 7.37797 73.3319 6.93625 72.3877 6.68384V6.62074C72.1045 6.55763 71.7897 6.55763 71.475 6.49453C71.2862 6.49453 71.1288 6.39988 70.9714 6.36832C68.3592 6.11591 65.7469 6.68384 63.5124 8.13521C60.9001 9.80744 59.0432 12.4893 58.4452 15.4867C57.8472 18.4841 58.4452 21.5446 60.1762 24.1003C61.4666 26.0565 63.2606 27.5078 65.3693 28.3913C66.0931 28.6752 66.817 28.8961 67.6038 29.0539C73.3949 30.1582 76.6051 27.287 81.4519 22.9013L81.7037 22.6805L82.5535 21.9232C87.1485 17.79 88.5963 16.6226 91.4288 17.1589C92.9395 17.4429 94.2614 18.3263 95.1426 19.6515C95.9924 20.9136 96.3071 22.428 96.0239 23.8794C95.7406 25.3623 94.8279 26.6559 93.5061 27.5078C92.2786 28.2966 90.8623 28.549 89.4775 28.3282C88.2816 28.1389 87.4318 27.634 86.9597 27.3185C85.2916 26.2773 84.3789 24.826 83.9068 23.9741C82.522 25.2046 81.1372 26.4035 79.7524 27.634C80.5077 29.0539 82.3646 32.0197 85.8896 33.3133C86.5191 33.5657 87.1485 33.6919 87.7465 33.8181V33.9128C87.9983 33.9759 88.2501 33.9759 88.5019 34.0074C88.6278 34.0074 88.7222 34.0706 88.8166 34.1021C91.5233 34.4492 94.2614 33.8812 96.6219 32.3983C99.2341 30.7261 101.091 28.0442 101.689 25.0468V25.0784Z" fill="#0C1504"/>
</g>
</g>
<defs>
<clipPath id="clip0_27_198">
<rect width="150" height="36.3158" fill="white"/>
</clipPath>
</defs>
</svg>
