<svg width="162" height="37" viewBox="0 0 162 37" fill="none" xmlns="http://www.w3.org/2000/svg">
<g id="sync.club&#194;&#160;&#194;&#174;">
<path id="Vector" d="M152.212 29.3608C150.977 29.3608 149.859 29.1036 148.855 28.5892C147.852 28.0747 147.106 27.4703 146.618 26.7758V28.9364H141.332V0H146.618V11.806C147.106 11.1116 147.852 10.5071 148.855 9.9927C149.859 9.47828 150.977 9.22106 152.212 9.22106C154.759 9.22106 156.906 10.2113 158.655 12.1919C160.404 14.1724 161.279 16.5388 161.279 19.2909C161.279 22.0431 160.404 24.4095 158.655 26.39C156.906 28.3705 154.759 29.3608 152.212 29.3608ZM147.505 23.072C148.405 24.0494 149.589 24.5381 151.055 24.5381C152.521 24.5381 153.691 24.0494 154.566 23.072C155.466 22.0945 155.916 20.8342 155.916 19.2909C155.916 17.7477 155.466 16.4873 154.566 15.5099C153.691 14.5325 152.521 14.0438 151.055 14.0438C149.589 14.0438 148.405 14.5325 147.505 15.5099C146.631 16.4873 146.193 17.7477 146.193 19.2909C146.193 20.8342 146.631 22.0945 147.505 23.072Z" fill="white"/>
<path id="Vector_2" d="M127.217 29.3607C124.927 29.3607 123.14 28.589 121.854 27.0457C120.593 25.5025 119.963 23.4319 119.963 20.8341V9.64532H125.249V19.9467C125.249 23.0075 126.342 24.5379 128.528 24.5379C129.763 24.5379 130.727 24.0749 131.422 23.149C132.142 22.223 132.502 20.8598 132.502 19.0593V9.64532H137.788V28.9363H132.502V26.7371C131.319 28.4861 129.557 29.3607 127.217 29.3607Z" fill="white"/>
<path id="Vector_3" d="M111.376 28.9364V0H116.662V28.9364H111.376Z" fill="white"/>
<path id="Vector_4" d="M99.4517 29.3605C96.5452 29.3605 94.1274 28.3959 92.1983 26.4669C90.2692 24.512 89.3047 22.12 89.3047 19.2906C89.3047 16.4613 90.2692 14.0821 92.1983 12.153C94.1274 10.1982 96.5452 9.22076 99.4517 9.22076C102.024 9.22076 104.172 9.94096 105.895 11.3813C107.644 12.8217 108.789 14.6994 109.329 17.0143H103.85C103.001 15.008 101.535 14.0049 99.4517 14.0049C98.0371 14.0049 96.8796 14.4936 95.9794 15.471C95.0791 16.4227 94.629 17.6959 94.629 19.2906C94.629 20.8853 95.0791 22.1714 95.9794 23.1488C96.8796 24.1005 98.0371 24.5763 99.4517 24.5763C101.535 24.5763 103.001 23.5732 103.85 21.567H109.329C108.789 23.8819 107.644 25.7595 105.895 27.1999C104.172 28.6403 102.024 29.3605 99.4517 29.3605Z" fill="white"/>
<path id="Vector_5" d="M84.198 29.2457C83.1177 29.2457 82.2046 28.8727 81.4587 28.1268C80.7128 27.3809 80.3398 26.4678 80.3398 25.3875C80.3398 24.3072 80.7128 23.3941 81.4587 22.6482C82.2046 21.9023 83.1177 21.5293 84.198 21.5293C85.2526 21.5293 86.1528 21.9151 86.8988 22.6868C87.6704 23.4327 88.0562 24.3329 88.0562 25.3875C88.0562 26.4421 87.6704 27.3552 86.8988 28.1268C86.1528 28.8727 85.2526 29.2457 84.198 29.2457Z" fill="#C5FF96"/>
<path id="Vector_6" d="M69.4567 29.3605C66.5502 29.3605 64.1324 28.3959 62.2033 26.4669C60.2742 24.512 59.3097 22.12 59.3097 19.2906C59.3097 16.4613 60.2742 14.0821 62.2033 12.153C64.1324 10.1982 66.5502 9.22076 69.4567 9.22076C72.0288 9.22076 74.1766 9.94096 75.8999 11.3813C77.6489 12.8217 78.7935 14.6994 79.3337 17.0143H73.8551C73.0063 15.008 71.5401 14.0049 69.4567 14.0049C68.0421 14.0049 66.8846 14.4936 65.9844 15.471C65.0841 16.4227 64.634 17.6959 64.634 19.2906C64.634 20.8853 65.0841 22.1714 65.9844 23.1488C66.8846 24.1005 68.0421 24.5763 69.4567 24.5763C71.5401 24.5763 73.0063 23.5732 73.8551 21.567H79.3337C78.7935 23.8819 77.6489 25.7595 75.8999 27.1999C74.1766 28.6403 72.0288 29.3605 69.4567 29.3605Z" fill="#C5FF96"/>
<path id="Vector_7" d="M38.9912 28.936V9.6451H44.2769V11.8443C45.4601 10.0952 47.2992 9.2207 49.7941 9.2207C52.109 9.2207 53.9224 9.99234 55.2342 11.5356C56.5717 13.0532 57.2404 15.0851 57.2404 17.6315V28.936H51.9547V18.5189C51.9547 17.1043 51.6589 16.0111 51.0673 15.2395C50.4757 14.4421 49.6398 14.0434 48.5595 14.0434C47.2734 14.0434 46.2317 14.5064 45.4344 15.4324C44.6627 16.3583 44.2769 17.7216 44.2769 19.5221V28.936H38.9912Z" fill="#C5FF96"/>
<path id="Vector_8" d="M25.8623 37H20.1136L24.1647 27.8561L16.0625 9.64551H21.8498L27.0197 22.146L32.1511 9.64551H37.977L25.8623 37Z" fill="#C5FF96"/>
<path id="Vector_9" d="M8.7195 29.3605C6.25026 29.3605 4.20542 28.7432 2.58498 27.5086C0.964546 26.2739 0.102885 24.705 0 22.8016H5.51721C5.62009 23.6247 5.98019 24.2548 6.5975 24.6921C7.21481 25.1036 7.97358 25.3094 8.87383 25.3094C10.5457 25.3094 11.3816 24.795 11.3816 23.7661C11.3816 23.2517 11.1887 22.8659 10.8029 22.6087C10.4428 22.3257 9.82551 22.0685 8.95099 21.837L5.3243 20.9111C3.67814 20.4738 2.44352 19.7408 1.62044 18.7119C0.82308 17.6573 0.4244 16.397 0.4244 14.9309C0.4244 13.259 1.11887 11.8958 2.50782 10.8412C3.92249 9.76091 5.813 9.22076 8.17935 9.22076C10.3399 9.22076 12.1404 9.77377 13.5808 10.8798C15.0212 11.9601 15.8186 13.439 15.9729 15.3167H10.6486C10.4171 14.0049 9.5683 13.349 8.10219 13.349C7.40772 13.349 6.85471 13.4776 6.44317 13.7348C6.03163 13.9921 5.82586 14.3522 5.82586 14.8151C5.82586 15.6639 6.55892 16.2555 8.02503 16.5899L11.4202 17.5159C13.2979 17.9788 14.6611 18.7119 15.5099 19.715C16.3587 20.6924 16.7831 21.9528 16.7831 23.4961C16.7831 25.2708 16.0243 26.6983 14.5068 27.7786C13.0149 28.8332 11.0859 29.3605 8.7195 29.3605Z" fill="#C5FF96"/>
</g>
</svg>
