<svg width="150" height="37" viewBox="0 0 150 37" fill="none" xmlns="http://www.w3.org/2000/svg">
<g clip-path="url(#clip0_33_842)">
<path d="M8.52916 28.8065C6.10575 28.8065 4.12295 28.207 2.51783 26.9765C0.944188 25.7776 0.0944188 24.2316 0 22.37H5.41334C5.50776 23.1904 5.85396 23.7898 6.48342 24.2C7.08141 24.6102 7.83676 24.831 8.718 24.831C10.3546 24.831 11.1729 24.3262 11.1729 23.3166C11.1729 22.8117 10.9841 22.4331 10.6379 22.1492C10.2916 21.8652 9.66219 21.6443 8.81242 21.4235L5.25598 20.5085C3.65086 20.0668 2.45489 19.3411 1.63659 18.3314C0.849769 17.3218 0.440621 16.0913 0.440621 14.6399C0.440621 12.9992 1.13303 11.6425 2.48636 10.6013C3.87117 9.5601 5.6966 9.02373 8.0256 9.02373C10.1343 9.02373 11.8968 9.5601 13.3131 10.6329C14.7293 11.7056 15.5162 13.157 15.642 15.0185H10.4175C10.1972 13.7249 9.34746 13.0939 7.93118 13.0939C7.23877 13.0939 6.70373 13.2201 6.29459 13.4725C5.88544 13.7249 5.6966 14.072 5.6966 14.5452C5.6966 15.3656 6.42048 15.9651 7.83676 16.2806L11.1729 17.1956C12.9983 17.6373 14.3517 18.363 15.17 19.3411C15.9882 20.3192 16.4289 21.5497 16.4289 23.0641C16.4289 24.7995 15.705 26.1877 14.2258 27.2605C12.7465 28.3017 10.8582 28.8381 8.52916 28.8381V28.8065Z" fill="#C5FF96"/>
<path d="M24.9266 36.3158H19.2929L23.2585 27.3552L15.3273 9.49701H20.9925L26.0596 21.7705L31.0953 9.49701H36.7919L24.9266 36.3473V36.3158Z" fill="#C5FF96"/>
<path d="M38.5547 28.3963V9.4654H43.7162V11.6109C44.8807 9.90712 46.6747 9.02368 49.1296 9.02368C51.3956 9.02368 53.1896 9.78092 54.48 11.2638C55.7704 12.7468 56.4313 14.7661 56.4313 17.2586V28.3648H51.2698V18.1421C51.2698 16.7538 50.9865 15.681 50.3885 14.8923C49.822 14.135 49.0037 13.7249 47.9336 13.7249C46.6747 13.7249 45.6676 14.1666 44.8807 15.0816C44.1254 15.9966 43.7162 17.3217 43.7162 19.0886V28.3332H38.5547V28.3963Z" fill="#C5FF96"/>
<path d="M103.86 28.3964V0H109.022V28.3964H103.86Z" fill="#0C1504"/>
<path d="M118.055 28.8065C115.82 28.8065 114.058 28.0493 112.83 26.5348C111.572 25.0203 110.974 23.0011 110.974 20.4454V9.46545H116.135V19.5619C116.135 22.5593 117.205 24.0738 119.345 24.0738C120.541 24.0738 121.517 23.6321 122.209 22.7171C122.902 21.8021 123.248 20.4769 123.248 18.71V9.46545H128.41V28.3964H123.248V26.2509C122.084 27.9546 120.353 28.8381 118.086 28.8381L118.055 28.8065Z" fill="#0C1504"/>
<path d="M141.124 28.8065C139.928 28.8065 138.827 28.5541 137.851 28.0493C136.875 27.5445 136.151 26.945 135.648 26.2824V28.3964H130.486V0H135.648V11.5794C136.12 10.8853 136.844 10.3173 137.851 9.81252C138.827 9.30769 139.928 9.05528 141.124 9.05528C143.611 9.05528 145.719 10.0334 147.419 11.958C149.118 13.9142 150 16.2175 150 18.9309C150 21.6443 149.15 23.9476 147.419 25.9038C145.719 27.86 143.611 28.8065 141.124 28.8065ZM136.529 22.654C137.41 23.6005 138.543 24.1054 139.991 24.1054C141.439 24.1054 142.572 23.6321 143.453 22.654C144.334 21.7074 144.744 20.4454 144.744 18.9309C144.744 17.4164 144.303 16.1859 143.453 15.2078C142.572 14.2613 141.439 13.7565 139.991 13.7565C138.543 13.7565 137.41 14.2297 136.529 15.2078C135.648 16.1544 135.239 17.4164 135.239 18.9309C135.239 20.4454 135.679 21.6759 136.529 22.654Z" fill="#0C1504"/>
<mask id="mask0_33_842" style="mask-type:alpha" maskUnits="userSpaceOnUse" x="56" y="3" width="29" height="29">
<path d="M56.6513 31.5515V6.3103V3.15515H84.9769V6.3103V12.6206L81.8296 14.1982V25.2412L78.6823 28.3964L56.6513 31.5515Z" fill="#D9D9D9"/>
</mask>
<g mask="url(#mask0_33_842)">
<path d="M101.689 25.0784C102.287 22.081 101.689 19.0205 99.9577 16.4648C98.2267 13.846 95.5515 12.1107 92.5301 11.5112C86.739 10.4069 83.5603 13.2781 78.7134 17.6322L78.4617 17.8846L77.6119 18.6103C73.0168 22.7436 71.5691 23.911 68.705 23.3746C67.1943 23.0591 65.8725 22.2072 64.9912 20.882C64.1415 19.62 63.8267 18.1055 64.11 16.6541C64.4247 15.1712 65.306 13.8776 66.6278 13.0257C67.0055 12.8048 67.3832 12.6155 67.7609 12.4578C68.8624 12.0476 69.7751 12.1107 70.3416 12.1423C71.5691 12.2369 72.4818 12.584 72.6706 12.6786C74.8423 13.5936 75.8494 15.5498 76.1641 16.1808C77.5804 15.0134 79.0282 13.846 80.4445 12.6786C79.6576 11.4797 78.1469 9.55503 75.6606 8.07211C74.4646 7.37797 73.3316 6.93625 72.3874 6.68384V6.62074C72.1041 6.55763 71.7894 6.55763 71.4747 6.49453C71.2858 6.49453 71.1285 6.39988 70.9711 6.36832C68.3588 6.11591 65.7466 6.68384 63.512 8.13521C60.8998 9.80744 59.0429 12.4893 58.4449 15.4867C57.8469 18.4841 58.4449 21.5446 60.1759 24.1003C61.4663 26.0565 63.2602 27.5078 65.3689 28.3913C66.0928 28.6752 66.8167 28.8961 67.6035 29.0539C73.3945 30.1582 76.6048 27.287 81.4516 22.9013L81.7034 22.6805L82.5531 21.9232C87.1482 17.79 88.5959 16.6226 91.4285 17.1589C92.9392 17.4429 94.2611 18.3263 95.1423 19.6515C95.9921 20.9136 96.3068 22.428 96.0236 23.8794C95.7403 25.3623 94.8276 26.6559 93.5057 27.5078C92.2783 28.2966 90.862 28.549 89.4772 28.3282C88.2812 28.1389 87.4314 27.634 86.9593 27.3185C85.2913 26.2773 84.3786 24.826 83.9065 23.9741C82.5217 25.2046 81.1369 26.4035 79.7521 27.634C80.5074 29.0539 82.3643 32.0197 85.8893 33.3133C86.5187 33.5657 87.1482 33.6919 87.7462 33.8181V33.9128C87.998 33.9759 88.2497 33.9759 88.5015 34.0074C88.6274 34.0074 88.7218 34.0706 88.8163 34.1021C91.5229 34.4492 94.2611 33.8812 96.6215 32.3983C99.2338 30.7261 101.091 28.0442 101.689 25.0468V25.0784Z" fill="#C5FF96"/>
</g>
<mask id="mask1_33_842" style="mask-type:alpha" maskUnits="userSpaceOnUse" x="78" y="6" width="30" height="29">
<path d="M107.008 6.31031V31.5515V34.7067H78.6821V31.5515V25.2412L81.8293 23.6636V12.6206L84.9766 9.46546L107.008 6.31031Z" fill="#D9D9D9"/>
</mask>
<g mask="url(#mask1_33_842)">
<path d="M101.69 25.0784C102.288 22.081 101.69 19.0205 99.9586 16.4648C98.2276 13.846 95.5524 12.1107 92.531 11.5112C86.74 10.4069 83.5612 13.2781 78.7144 17.6322L78.4626 17.8846L77.6128 18.6103C73.0178 22.7436 71.57 23.911 68.706 23.3746C67.1953 23.0591 65.8734 22.2072 64.9922 20.882C64.1424 19.62 63.8277 18.1055 64.1109 16.6541C64.4257 15.1712 65.3069 13.8776 66.6288 13.0257C67.0065 12.8048 67.3841 12.6155 67.7618 12.4578C68.8634 12.0476 69.7761 12.1107 70.3426 12.1423C71.57 12.2369 72.4827 12.584 72.6716 12.6786C74.8432 13.5936 75.8504 15.5498 76.1651 16.1808C77.5814 15.0134 79.0291 13.846 80.4454 12.6786C79.6586 11.4797 78.1479 9.55503 75.6615 8.07211C74.4655 7.37797 73.3325 6.93625 72.3883 6.68384V6.62074C72.1051 6.55763 71.7903 6.55763 71.4756 6.49453C71.2868 6.49453 71.1294 6.39988 70.972 6.36832C68.3598 6.11591 65.7475 6.68384 63.513 8.13521C60.9007 9.80744 59.0438 12.4893 58.4458 15.4867C57.8478 18.4841 58.4458 21.5446 60.1768 24.1003C61.4672 26.0565 63.2612 27.5078 65.3699 28.3913C66.0937 28.6752 66.8176 28.8961 67.6044 29.0539C73.3955 30.1582 76.6057 27.287 81.4525 22.9013L81.7043 22.6805L82.5541 21.9232C87.1491 17.79 88.5969 16.6226 91.4295 17.1589C92.9402 17.4429 94.262 18.3263 95.1433 19.6515C95.993 20.9136 96.3078 22.428 96.0245 23.8794C95.7412 25.3623 94.8285 26.6559 93.5067 27.5078C92.2792 28.2966 90.8629 28.549 89.4781 28.3282C88.2822 28.1389 87.4324 27.634 86.9603 27.3185C85.2922 26.2773 84.3795 24.826 83.9074 23.9741C82.5226 25.2046 81.1378 26.4035 79.753 27.634C80.5083 29.0539 82.3653 32.0197 85.8902 33.3133C86.5197 33.5657 87.1491 33.6919 87.7471 33.8181V33.9128C87.9989 33.9759 88.2507 33.9759 88.5025 34.0074C88.6284 34.0074 88.7228 34.0706 88.8172 34.1021C91.5239 34.4492 94.262 33.8812 96.6225 32.3983C99.2347 30.7261 101.092 28.0442 101.69 25.0468V25.0784Z" fill="#0C1504"/>
</g>
</g>
<defs>
<clipPath id="clip0_33_842">
<rect width="150" height="36.3158" fill="white"/>
</clipPath>
</defs>
</svg>
