<svg width="82" height="76" viewBox="0 0 82 76" fill="none" xmlns="http://www.w3.org/2000/svg">
<rect width="81.4286" height="76" fill="#0C1504"/>
<path d="M73.6598 44.5897C74.563 40.1834 73.6598 35.6844 71.0451 31.9275C68.4304 28.0778 64.3895 25.5268 59.8257 24.6455C51.0784 23.0222 46.2769 27.2429 38.9558 33.6436L38.5755 34.0146L37.2919 35.0814C30.3511 41.1574 28.1643 42.8735 23.8382 42.0851C21.5563 41.6212 19.5596 40.3689 18.2285 38.4209C16.9449 36.5656 16.4695 34.3393 16.8974 32.2057C17.3728 30.0258 18.7039 28.1242 20.7005 26.8718C21.271 26.5472 21.8415 26.2689 22.412 26.037C24.0759 25.434 25.4545 25.5268 26.3102 25.5732C28.1643 25.7123 29.5429 26.2225 29.8282 26.3616C33.1084 27.7067 34.6297 30.5824 35.1051 31.51C37.2444 29.7939 39.4312 28.0778 41.5705 26.3616C40.382 24.5991 38.1001 21.7699 34.3444 19.5899C32.5379 18.5695 30.8265 17.9202 29.4003 17.5491V17.4563C28.9725 17.3636 28.4971 17.3636 28.0217 17.2708C27.7364 17.2708 27.4987 17.1317 27.261 17.0853C23.3152 16.7142 19.3694 17.5491 15.9941 19.6827C12.0483 22.1409 9.24347 26.0834 8.34022 30.4896C7.43697 34.8959 8.34023 39.3949 10.9549 43.1518C12.904 46.0275 15.6138 48.1611 18.799 49.4598C19.8924 49.8772 20.9858 50.2019 22.1743 50.4338C30.9216 52.0571 35.7706 47.8364 43.0917 41.3893L43.4721 41.0647L44.7556 39.9515C51.6964 33.8755 53.8833 32.1594 58.1618 32.9479C60.4437 33.3653 62.4404 34.664 63.7715 36.612C65.0551 38.4673 65.5305 40.6936 65.1026 42.8272C64.6748 45.0071 63.2961 46.9088 61.2994 48.1611C59.4454 49.3206 57.3061 49.6917 55.2144 49.367C53.4079 49.0887 52.1243 48.3466 51.4112 47.8828C48.8916 46.3522 47.5129 44.2186 46.7998 42.9663C44.7081 44.7752 42.6163 46.5377 40.5246 48.3466C41.6656 50.4338 44.4704 54.7937 49.7948 56.6953C50.7456 57.0664 51.6964 57.2519 52.5997 57.4374V57.5766C52.98 57.6693 53.3603 57.6693 53.7406 57.7157C53.9308 57.7157 54.0734 57.8085 54.216 57.8549C58.3044 58.3651 62.4404 57.5302 66.0059 55.3502C69.9517 52.892 72.7565 48.9496 73.6598 44.5433V44.5897Z" fill="#C5FF96"/>
</svg>
