<svg width="33" height="33" viewBox="0 0 33 33" fill="none" xmlns="http://www.w3.org/2000/svg">
<g id="Frame 5138">
<rect width="33" height="33" rx="16.5" fill="#0C1504"/>
<g id="Group">
<path id="Vector" d="M20.68 9.35001H16.06C14.751 9.35001 13.75 10.351 13.75 11.66V12.353C13.75 12.815 14.058 13.123 14.52 13.123C14.982 13.123 15.29 12.815 15.29 12.353V11.66C15.29 11.198 15.598 10.89 16.06 10.89H20.68C21.142 10.89 21.45 11.198 21.45 11.66V17.82C21.45 18.282 21.142 18.59 20.68 18.59H16.06C15.598 18.59 15.29 18.282 15.29 17.82V17.05C15.29 16.588 14.982 16.28 14.52 16.28C14.058 16.28 13.75 16.588 13.75 17.05V17.82C13.75 19.129 14.751 20.13 16.06 20.13H20.68C21.989 20.13 22.99 19.129 22.99 17.82V11.66C22.99 10.351 21.989 9.35001 20.68 9.35001Z" fill="#C5FF96"/>
<path id="Vector_2" d="M18.37 20.9C17.908 20.9 17.6 21.208 17.6 21.67V22.44C17.6 22.902 17.292 23.21 16.83 23.21H12.21C11.748 23.21 11.44 22.902 11.44 22.44V16.28C11.44 15.818 11.748 15.51 12.21 15.51H16.83C17.292 15.51 17.6 15.818 17.6 16.28V17.05C17.6 17.512 17.908 17.82 18.37 17.82C18.832 17.82 19.14 17.512 19.14 17.05V16.28C19.14 14.971 18.139 13.97 16.83 13.97H12.21C10.901 13.97 9.89999 14.971 9.89999 16.28V22.44C9.89999 23.749 10.901 24.75 12.21 24.75H16.83C18.139 24.75 19.14 23.749 19.14 22.44V21.67C19.14 21.208 18.832 20.9 18.37 20.9Z" fill="#C5FF96"/>
</g>
</g>
</svg>
