<svg width="39" height="39" viewBox="0 0 39 39" fill="none" xmlns="http://www.w3.org/2000/svg">
<g id="Frame 5136">
<rect width="39" height="39" rx="19.5" fill="#0C1504"/>
<path id="Vector" fill-rule="evenodd" clip-rule="evenodd" d="M27 16.5V25.5C27 25.775 26.775 26 26.5 26H17.5C17.225 26 17 25.775 17 25.5V16.5C17 16.224 17.224 16 17.5 16H26.5C26.776 16 27 16.224 27 16.5ZM26.5 14C27.879 14 29 15.122 29 16.5V25.5C29 26.879 27.879 28 26.5 28H17.5C16.122 28 15 26.879 15 25.5V16.5C15 15.122 16.122 14 17.5 14H26.5ZM24 10C24.552 10 25 10.448 25 11C25 11.552 24.552 12 24 12H13V23C13 23.552 12.552 24 12 24C11.448 24 11 23.552 11 23V12.5C11 11.119 12.119 10 13.5 10H24Z" fill="#C5FF96"/>
</g>
</svg>
