<svg width="60" height="60" viewBox="0 0 60 60" fill="none" xmlns="http://www.w3.org/2000/svg">
<g id="Frame 5137">
<rect width="60" height="60" rx="30" fill="#EAEAEA"/>
<g id="Group 1362788950">
<path id="XMLID_802_" d="M23.0655 25.3542H17.8344C17.6022 25.3542 17.4141 25.5424 17.4141 25.7745V42.5796C17.4141 42.8118 17.6022 42.9999 17.8344 42.9999H23.0655C23.2976 42.9999 23.4857 42.8118 23.4857 42.5796V25.7745C23.4857 25.5424 23.2976 25.3542 23.0655 25.3542Z" fill="#0C1504"/>
<path id="XMLID_803_" d="M20.4518 17C18.5485 17 17 18.5468 17 20.4481C17 22.3502 18.5485 23.8975 20.4518 23.8975C22.3537 23.8975 23.9009 22.3501 23.9009 20.4481C23.901 18.5468 22.3537 17 20.4518 17Z" fill="#0C1504"/>
<path id="XMLID_804_" d="M36.371 24.9366C34.27 24.9366 32.7169 25.8397 31.7749 26.866V25.7745C31.7749 25.5424 31.5868 25.3542 31.3546 25.3542H26.345C26.1128 25.3542 25.9247 25.5424 25.9247 25.7745V42.5796C25.9247 42.8118 26.1128 42.9999 26.345 42.9999H31.5646C31.7967 42.9999 31.9849 42.8118 31.9849 42.5796V34.265C31.9849 31.4632 32.7459 30.3716 34.699 30.3716C36.8261 30.3716 36.9952 32.1215 36.9952 34.4091V42.5797C36.9952 42.8119 37.1833 43 37.4155 43H42.637C42.8692 43 43.0573 42.8119 43.0573 42.5797V33.3618C43.0573 29.1956 42.2629 24.9366 36.371 24.9366Z" fill="#0C1504"/>
</g>
</g>
</svg>
