<svg width="60" height="60" viewBox="0 0 60 60" fill="none" xmlns="http://www.w3.org/2000/svg">
<g id="Frame 5138">
<rect width="60" height="60" rx="30" fill="#EAEAEA"/>
<g id="Group">
<path id="Vector" d="M37.6 17H29.2C26.82 17 25 18.82 25 21.2V22.46C25 23.3 25.56 23.86 26.4 23.86C27.24 23.86 27.8 23.3 27.8 22.46V21.2C27.8 20.36 28.36 19.8 29.2 19.8H37.6C38.44 19.8 39 20.36 39 21.2V32.4C39 33.24 38.44 33.8 37.6 33.8H29.2C28.36 33.8 27.8 33.24 27.8 32.4V31C27.8 30.16 27.24 29.6 26.4 29.6C25.56 29.6 25 30.16 25 31V32.4C25 34.78 26.82 36.6 29.2 36.6H37.6C39.98 36.6 41.8 34.78 41.8 32.4V21.2C41.8 18.82 39.98 17 37.6 17Z" fill="#0C1504"/>
<path id="Vector_2" d="M33.4 38C32.56 38 32 38.56 32 39.4V40.8C32 41.64 31.44 42.2 30.6 42.2H22.2C21.36 42.2 20.8 41.64 20.8 40.8V29.6C20.8 28.76 21.36 28.2 22.2 28.2H30.6C31.44 28.2 32 28.76 32 29.6V31C32 31.84 32.56 32.4 33.4 32.4C34.24 32.4 34.8 31.84 34.8 31V29.6C34.8 27.22 32.98 25.4 30.6 25.4H22.2C19.82 25.4 18 27.22 18 29.6V40.8C18 43.18 19.82 45 22.2 45H30.6C32.98 45 34.8 43.18 34.8 40.8V39.4C34.8 38.56 34.24 38 33.4 38Z" fill="#0C1504"/>
</g>
</g>
</svg>
